# xmcd CD database file
#
# Track frame offsets:
#	150
#	16031
#	39264
#	62889
#	87384
#	109553
#	134940
#	161712
#	186002
#	207897
#	232177
#	246285
#	270129
#	293096
#
# Disc length: 4152 seconds
#
# Revision: 0
# Processed by: cddbd v1.5.2PL0 Copyright (c) Steve Scherf et al.
# Submitted via: CDex 1.51
#
DISCID=c210360e
DTITLE=Shaun Booker and Sean Carney - Blue Plate Special
DYEAR=2015
DGENRE=Blues
TTITLE0=Blue Plate Special
TTITLE1=Restless Smile
TTITLE2=Rock Me Babe
TTITLE3=Zero Hero
TTITLE4=TL
TTITLE5=I Am A Wipeout
TTITLE6=Another Form Of The Blues
TTITLE7=Sunset Key West
TTITLE8=Yellow Cross
TTITLE9=David and Goliath
TTITLE10=Mr Telephone Man
TTITLE11=I Don't Even Know Your Name
TTITLE12=Ruling Class
TTITLE13=Tobacco Road
EXTD=YEAR: 2015
EXTT0=
EXTT1=
EXTT2=
EXTT3=
EXTT4=
EXTT5=
EXTT6=
EXTT7=
EXTT8=
EXTT9=
EXTT10=
EXTT11=
EXTT12=
EXTT13=
PLAYORDER=
